<svg width="301" height="447" viewBox="0 0 301 447" fill="none" xmlns="http://www.w3.org/2000/svg">
<rect width="301" height="447" fill="url(#paint0_linear_0_120)"/>
<rect x="1" y="1" width="299" height="445" stroke="#DCCA87" stroke-opacity="0.2" stroke-width="2"/>
<path d="M161.57 208.83C161.056 208.83 160.553 208.982 160.125 209.268C159.698 209.554 159.365 209.96 159.168 210.435C158.971 210.91 158.92 211.433 159.02 211.937C159.12 212.441 159.368 212.905 159.732 213.268C160.095 213.632 160.558 213.879 161.063 213.98C161.567 214.08 162.09 214.029 162.565 213.832C163.04 213.635 163.446 213.302 163.732 212.874C164.017 212.447 164.17 211.944 164.17 211.43C164.17 210.74 163.896 210.079 163.408 209.591C162.921 209.104 162.26 208.83 161.57 208.83ZM171.537 214.073C171.495 212.275 171.158 210.497 170.54 208.808C169.989 207.363 169.132 206.055 168.027 204.973C166.954 203.862 165.642 203.01 164.192 202.481C162.507 201.845 160.727 201.5 158.927 201.463C156.63 201.333 155.893 201.333 150 201.333C144.107 201.333 143.37 201.333 141.073 201.463C139.273 201.5 137.493 201.845 135.808 202.481C134.36 203.016 133.05 203.867 131.973 204.973C130.863 206.046 130.011 207.357 129.482 208.808C128.845 210.492 128.501 212.273 128.463 214.073C128.333 216.37 128.333 217.106 128.333 223C128.333 228.893 128.333 229.63 128.463 231.926C128.501 233.727 128.845 235.507 129.482 237.191C130.011 238.642 130.863 239.953 131.973 241.026C133.05 242.132 134.36 242.984 135.808 243.518C137.493 244.155 139.273 244.499 141.073 244.536C143.37 244.666 144.107 244.666 150 244.666C155.893 244.666 156.63 244.666 158.927 244.536C160.727 244.499 162.507 244.155 164.192 243.518C165.642 242.989 166.954 242.137 168.027 241.026C169.137 239.949 169.995 238.639 170.54 237.191C171.158 235.503 171.495 233.724 171.537 231.926C171.537 229.63 171.667 228.893 171.667 223C171.667 217.106 171.667 216.37 171.537 214.073ZM167.637 231.666C167.621 233.042 167.372 234.404 166.9 235.696C166.554 236.639 165.998 237.491 165.275 238.188C164.572 238.904 163.722 239.459 162.783 239.813C161.491 240.285 160.129 240.534 158.753 240.55C156.587 240.658 155.785 240.68 150.087 240.68C144.388 240.68 143.587 240.68 141.42 240.55C139.992 240.576 138.57 240.357 137.217 239.9C136.319 239.527 135.508 238.974 134.833 238.275C134.114 237.579 133.565 236.726 133.23 235.783C132.701 234.473 132.408 233.079 132.363 231.666C132.363 229.5 132.233 228.698 132.233 223C132.233 217.301 132.233 216.5 132.363 214.333C132.373 212.927 132.63 211.534 133.122 210.216C133.503 209.302 134.089 208.487 134.833 207.833C135.492 207.088 136.305 206.496 137.217 206.1C138.537 205.623 139.929 205.374 141.333 205.363C143.5 205.363 144.302 205.233 150 205.233C155.698 205.233 156.5 205.233 158.667 205.363C160.042 205.379 161.405 205.628 162.697 206.1C163.681 206.465 164.565 207.059 165.275 207.833C165.985 208.499 166.54 209.312 166.9 210.216C167.382 211.536 167.631 212.929 167.637 214.333C167.745 216.5 167.767 217.301 167.767 223C167.767 228.698 167.745 229.5 167.637 231.666ZM150 211.885C147.803 211.889 145.656 212.544 143.831 213.768C142.006 214.992 140.584 216.73 139.747 218.761C138.909 220.793 138.692 223.027 139.123 225.181C139.554 227.336 140.614 229.315 142.17 230.867C143.725 232.419 145.706 233.476 147.861 233.903C150.017 234.33 152.25 234.108 154.28 233.267C156.31 232.425 158.045 231 159.265 229.173C160.485 227.345 161.137 225.197 161.137 223C161.14 221.537 160.853 220.089 160.294 218.738C159.735 217.387 158.915 216.159 157.88 215.126C156.845 214.093 155.616 213.275 154.264 212.719C152.911 212.162 151.462 211.879 150 211.885ZM150 230.215C148.573 230.215 147.178 229.792 145.992 228.999C144.805 228.206 143.88 227.079 143.334 225.761C142.788 224.442 142.645 222.992 142.924 221.592C143.202 220.193 143.889 218.907 144.898 217.898C145.907 216.889 147.193 216.202 148.592 215.923C149.992 215.645 151.443 215.788 152.761 216.334C154.079 216.88 155.206 217.805 155.999 218.991C156.792 220.178 157.215 221.573 157.215 223C157.215 223.947 157.028 224.885 156.666 225.761C156.303 226.636 155.772 227.431 155.102 228.101C154.432 228.771 153.636 229.303 152.761 229.665C151.886 230.028 150.947 230.215 150 230.215Z" fill="white"/>
<defs>
<linearGradient id="paint0_linear_0_120" x1="366.387" y1="-21.4217" x2="-88.1158" y2="565.304" gradientUnits="userSpaceOnUse">
<stop offset="0.0876704" stop-opacity="0.75"/>
<stop offset="0.791303" stop-opacity="0.64"/>
</linearGradient>
</defs>
</svg>
